<?xml version="1.0" standalone="no"?><!DOCTYPE svg PUBLIC "-//W3C//DTD SVG 1.1//EN" "http://www.w3.org/Graphics/SVG/1.1/DTD/svg11.dtd"><svg t="1601536987297" class="icon" viewBox="0 0 1024 1024" version="1.1" xmlns="http://www.w3.org/2000/svg" p-id="3942" xmlns:xlink="http://www.w3.org/1999/xlink" width="200" height="200"><defs><style type="text/css"></style></defs><path d="M72.571429 512q0-93.142857 38.285714-178.857143l209.714286 574.285714q-112-54.285714-180-160.571429t-68-234.857143zm736-22.285714q0 10.857143-1.428571 22t-5.714286 28.285714-6.571429 25.142857-10 33.714286-10 33.142857l-43.428571 146.285714-158.857143-472q26.285714-1.714286 50.285714-4.571429 10.857143-1.142857 14.857143-10.571429t-1.428571-17.714286-16.285714-7.714286l-117.142857 5.714286q-42.857143-0.571429-115.428571-5.714286-6.857143-0.571429-11.714286 2.857143t-6.571429 8.571429-0.857143 10.571429 5.142857 9.428571 11.142857 4.571429l45.714286 4.571429 68.571429 187.428571-96 288-160-475.428571q26.285714-1.714286 50.285714-4.571429 10.857143-1.142857 14.857143-10.571429t-1.428571-17.714286-16.285714-7.714286l-117.142857 5.714286q-4 0-13.142857 2.857143t-14.857143 2.857143q60-91.428571 156.857143-144.857143t210-53.428571q84 0 160.285714 30.285714t136.285714 85.142857l-5.714286 0q-31.428571 0-52.571429 23.142857t-21.142857 54.571429q0 6.857143 1.142857 13.714286t2.285714 12.285714 4.571429 13.142857 5.142857 12 6.857143 12.857143 7.142857 12 8.285714 13.714286 8 13.142857q36 61.142857 36 121.142857zm-289.142857 60.571429l135.428571 369.714286q0.571429 3.428571 2.857143 6.285714-72 25.142857-145.714286 25.142857-64 0-124-18.285714zm377.714286-249.142857q54.285714 99.428571 54.285714 210.857143 0 119.428571-59.428571 220.285714t-159.428571 159.142857l134.285714-387.428571q33.714286-96.571429 33.714286-157.714286 0-24-3.428571-45.142857zm-385.142857-301.142857q104 0 198.857143 40.571429t163.428571 109.142857 109.142857 163.428571 40.571429 198.857143-40.571429 198.857143-109.142857 163.428571-163.428571 109.142857-198.857143 40.571429-198.857143-40.571429-163.428571-109.142857-109.142857-163.428571-40.571429-198.857143 40.571429-198.857143 109.142857-163.428571 163.428571-109.142857 198.857143-40.571429zm0 1000.571429q98.857143 0 189.428571-38.857143t156-104.285714 104.285714-156 38.857143-189.428571-38.857143-189.428571-104.285714-156-156-104.285714-189.428571-38.857143-189.428571 38.857143-156 104.285714-104.285714 156-38.857143 189.428571 38.857143 189.428571 104.285714 156 156 104.285714 189.428571 38.857143z" p-id="3943"></path></svg>